<svg id="visual" viewBox="0 0 600 900" width="600" height="900" xmlns="http://www.w3.org/2000/svg" xmlns:xlink="http://www.w3.org/1999/xlink" version="1.1"><path d="M0 28L12.5 29.5C25 31 50 34 75 40C100 46 125 55 150 58C175 61 200 58 225 59.5C250 61 275 67 300 64C325 61 350 49 375 46C400 43 425 49 450 47.5C475 46 500 37 525 40C550 43 575 58 587.5 65.5L600 73L600 0L587.5 0C575 0 550 0 525 0C500 0 475 0 450 0C425 0 400 0 375 0C350 0 325 0 300 0C275 0 250 0 225 0C200 0 175 0 150 0C125 0 100 0 75 0C50 0 25 0 12.5 0L0 0Z" fill="#a1002d"></path><path d="M0 100L12.5 103C25 106 50 112 75 113.5C100 115 125 112 150 110.5C175 109 200 109 225 115C250 121 275 133 300 134.5C325 136 350 127 375 119.5C400 112 425 106 450 97C475 88 500 76 525 76C550 76 575 88 587.5 94L600 100L600 71L587.5 63.5C575 56 550 41 525 38C500 35 475 44 450 45.5C425 47 400 41 375 44C350 47 325 59 300 62C275 65 250 59 225 57.5C200 56 175 59 150 56C125 53 100 44 75 38C50 32 25 29 12.5 27.5L0 26Z" fill="#af0030"></path><path d="M0 190L12.5 184C25 178 50 166 75 163C100 160 125 166 150 167.5C175 169 200 166 225 173.5C250 181 275 199 300 197.5C325 196 350 175 375 170.5C400 166 425 178 450 172C475 166 500 142 525 136C550 130 575 142 587.5 148L600 154L600 98L587.5 92C575 86 550 74 525 74C500 74 475 86 450 95C425 104 400 110 375 117.5C350 125 325 134 300 132.5C275 131 250 119 225 113C200 107 175 107 150 108.5C125 110 100 113 75 111.5C50 110 25 104 12.5 101L0 98Z" fill="#bd0032"></path><path d="M0 307L12.5 320.5C25 334 50 361 75 389.5C100 418 125 448 150 437.5C175 427 200 376 225 346C250 316 275 307 300 298C325 289 350 280 375 301C400 322 425 373 450 400C475 427 500 430 525 409C550 388 575 343 587.5 320.5L600 298L600 152L587.5 146C575 140 550 128 525 134C500 140 475 164 450 170C425 176 400 164 375 168.5C350 173 325 194 300 195.5C275 197 250 179 225 171.5C200 164 175 167 150 165.5C125 164 100 158 75 161C50 164 25 176 12.5 182L0 188Z" fill="#cc0035"></path><path d="M0 433L12.5 440.5C25 448 50 463 75 481C100 499 125 520 150 503.5C175 487 200 433 225 415C250 397 275 415 300 421C325 427 350 421 375 434.5C400 448 425 481 450 494.5C475 508 500 502 525 490C550 478 575 460 587.5 451L600 442L600 296L587.5 318.5C575 341 550 386 525 407C500 428 475 425 450 398C425 371 400 320 375 299C350 278 325 287 300 296C275 305 250 314 225 344C200 374 175 425 150 435.5C125 446 100 416 75 387.5C50 359 25 332 12.5 318.5L0 305Z" fill="#da0037"></path><path d="M0 676L12.5 668.5C25 661 50 646 75 647.5C100 649 125 667 150 671.5C175 676 200 667 225 668.5C250 670 275 682 300 683.5C325 685 350 676 375 679C400 682 425 697 450 698.5C475 700 500 688 525 688C550 688 575 700 587.5 706L600 712L600 440L587.5 449C575 458 550 476 525 488C500 500 475 506 450 492.5C425 479 400 446 375 432.5C350 419 325 425 300 419C275 413 250 395 225 413C200 431 175 485 150 501.5C125 518 100 497 75 479C50 461 25 446 12.5 438.5L0 431Z" fill="#e02645"></path><path d="M0 766L12.5 757C25 748 50 730 75 730C100 730 125 748 150 745C175 742 200 718 225 718C250 718 275 742 300 748C325 754 350 742 375 745C400 748 425 766 450 764.5C475 763 500 742 525 742C550 742 575 763 587.5 773.5L600 784L600 710L587.5 704C575 698 550 686 525 686C500 686 475 698 450 696.5C425 695 400 680 375 677C350 674 325 683 300 681.5C275 680 250 668 225 666.5C200 665 175 674 150 669.5C125 665 100 647 75 645.5C50 644 25 659 12.5 666.5L0 674Z" fill="#e53a53"></path><path d="M0 874L12.5 865C25 856 50 838 75 832C100 826 125 832 150 833.5C175 835 200 832 225 838C250 844 275 859 300 859C325 859 350 844 375 836.5C400 829 425 829 450 830.5C475 832 500 835 525 836.5C550 838 575 838 587.5 838L600 838L600 782L587.5 771.5C575 761 550 740 525 740C500 740 475 761 450 762.5C425 764 400 746 375 743C350 740 325 752 300 746C275 740 250 716 225 716C200 716 175 740 150 743C125 746 100 728 75 728C50 728 25 746 12.5 755L0 764Z" fill="#ea4b60"></path><path d="M0 901L12.5 901C25 901 50 901 75 901C100 901 125 901 150 901C175 901 200 901 225 901C250 901 275 901 300 901C325 901 350 901 375 901C400 901 425 901 450 901C475 901 500 901 525 901C550 901 575 901 587.5 901L600 901L600 836L587.5 836C575 836 550 836 525 834.5C500 833 475 830 450 828.5C425 827 400 827 375 834.5C350 842 325 857 300 857C275 857 250 842 225 836C200 830 175 833 150 831.5C125 830 100 824 75 830C50 836 25 854 12.5 863L0 872Z" fill="#ee5a6e"></path></svg>